<svg xmlns="http://www.w3.org/2000/svg" version="1.1" xmlns:xlink="http://www.w3.org/1999/xlink" xmlns:svgjs="http://svgjs.dev/svgjs" width="1500" height="1500" viewBox="0 0 1500 1500"><rect width="1500" height="1500" fill="#ffffff"></rect><g transform="matrix(0.6666666666666666,0,0,0.6666666666666666,249.39393939393938,669.2503951102381)"><svg viewBox="0 0 396 64" data-background-color="#ffffff" preserveAspectRatio="xMidYMid meet" height="242" width="1500" xmlns="http://www.w3.org/2000/svg" xmlns:xlink="http://www.w3.org/1999/xlink"><g id="tight-bounds" transform="matrix(1,0,0,1,0.2400000000000091,0.03290111329403089)"><svg viewBox="0 0 395.52 63.93419777341192" height="63.93419777341192" width="395.52"><g><svg viewBox="0 0 395.52 63.93419777341192" height="63.93419777341192" width="395.52"><g><svg viewBox="0 0 395.52 63.93419777341192" height="63.93419777341192" width="395.52"><g id="textblocktransform"><svg viewBox="0 0 395.52 63.93419777341192" height="63.93419777341192" width="395.52" id="textblock"><g><svg viewBox="0 0 395.52 63.93419777341192" height="63.93419777341192" width="395.52"><g transform="matrix(1,0,0,1,0,0)"><svg width="395.52" viewBox="3.25 -35.4 223.66 36.16" height="63.93419777341192" data-palette-color="#2a2c35"><path d="M10.25-13.99L10.25 0 3.25 0 3.25-35.01 10.25-35.01 10.25-21 24.24-21 24.24-35.01 31.25-35.01 31.25 0 24.24 0 24.24-13.99 10.25-13.99ZM44.33-13.99L58.35-13.99 58.35-21Q58.35-22.44 57.8-23.72 57.25-25 56.3-25.95 55.34-26.9 54.06-27.45 52.78-28 51.34-28L51.34-28Q49.9-28 48.62-27.45 47.34-26.9 46.38-25.95 45.43-25 44.88-23.72 44.33-22.44 44.33-21L44.33-21 44.33-13.99ZM65.35-21L65.35 0 58.35 0 58.35-7.01 44.33-7.01 44.33 0 37.35 0 37.35-21Q37.35-23.9 38.45-26.45 39.55-29 41.44-30.91 43.33-32.81 45.88-33.91 48.44-35.01 51.34-35.01L51.34-35.01Q54.25-35.01 56.8-33.91 59.35-32.81 61.25-30.91 63.16-29 64.26-26.45 65.35-23.9 65.35-21L65.35-21ZM69.38-24.51L69.38-24.51Q69.38-26.68 70.21-28.59 71.04-30.49 72.47-31.92 73.9-33.35 75.8-34.18 77.7-35.01 79.88-35.01L79.88-35.01 95.94-35.01 95.94-28 79.88-28Q79.15-28 78.51-27.73 77.88-27.47 77.4-26.99 76.92-26.51 76.66-25.88 76.39-25.24 76.39-24.51L76.39-24.51Q76.39-23.78 76.66-23.13 76.92-22.49 77.4-22.01 77.88-21.53 78.51-21.26 79.15-21 79.88-21L79.88-21 86.88-21Q89.06-21 90.97-20.18 92.89-19.36 94.32-17.93 95.75-16.5 96.56-14.59 97.38-12.67 97.38-10.5L97.38-10.5Q97.38-8.33 96.56-6.42 95.75-4.52 94.32-3.09 92.89-1.66 90.97-0.83 89.06 0 86.88 0L86.88 0 71.33 0 71.33-7.01 86.88-7.01Q87.62-7.01 88.25-7.28 88.89-7.54 89.36-8.02 89.84-8.5 90.11-9.13 90.38-9.77 90.38-10.5L90.38-10.5Q90.38-11.23 90.11-11.87 89.84-12.5 89.36-12.98 88.89-13.45 88.25-13.72 87.62-13.99 86.88-13.99L86.88-13.99 79.88-13.99Q77.7-13.99 75.8-14.82 73.9-15.65 72.47-17.08 71.04-18.51 70.21-20.42 69.38-22.34 69.38-24.51ZM125.97-7.01L125.97 0 101.97 0 101.97-35.01 125.97-35.01 125.97-28 108.98-28 108.98-21 120.48-21 120.48-13.99 108.98-13.99 108.98-7.01 125.97-7.01ZM158.49-35.01L158.49-13.99Q158.49-11.08 157.39-8.53 156.29-5.98 154.38-4.09 152.48-2.2 149.93-1.1 147.38 0 144.47 0L144.47 0Q141.57 0 139.02-1.1 136.46-2.2 134.57-4.09 132.68-5.98 131.58-8.53 130.48-11.08 130.48-13.99L130.48-13.99 130.48-35.01 137.47-35.01 137.47-13.99Q137.47-12.55 138.01-11.28 138.56-10.01 139.52-9.06 140.47-8.11 141.75-7.56 143.03-7.01 144.47-7.01L144.47-7.01Q145.91-7.01 147.19-7.56 148.48-8.11 149.43-9.06 150.38-10.01 150.93-11.28 151.48-12.55 151.48-13.99L151.48-13.99 151.48-35.01 158.49-35.01ZM192.57-35.01L192.57 0 185.07 0 171.57-23.05 171.57 0 164.56 0 164.56-35.01 172.06-35.01 185.56-11.94 185.56-35.01 192.57-35.01ZM226.91-17.36L226.91-3.54Q224.47-1.46 221.47-0.35 218.47 0.76 215.22 0.76L215.22 0.76Q212.73 0.76 210.42 0.11 208.11-0.54 206.11-1.72 204.11-2.91 202.45-4.55 200.79-6.2 199.62-8.22 198.45-10.23 197.8-12.55 197.15-14.87 197.15-17.36L197.15-17.36Q197.15-19.85 197.8-22.14 198.45-24.44 199.62-26.45 200.79-28.47 202.45-30.11 204.11-31.76 206.11-32.93 208.11-34.11 210.42-34.75 212.73-35.4 215.22-35.4L215.22-35.4Q218.47-35.4 221.47-34.29 224.47-33.18 226.91-31.1L226.91-31.1 223.25-25Q221.66-26.61 219.59-27.53 217.51-28.44 215.22-28.44L215.22-28.44Q212.92-28.44 210.91-27.56 208.9-26.68 207.38-25.18 205.87-23.68 204.99-21.67 204.11-19.65 204.11-17.36L204.11-17.36Q204.11-15.04 204.99-13.01 205.87-10.99 207.38-9.47 208.9-7.96 210.91-7.08 212.92-6.2 215.22-6.2L215.22-6.2Q216.54-6.2 217.78-6.52 219.03-6.84 220.15-7.4L220.15-7.4 220.15-17.36 226.91-17.36Z" opacity="1" transform="matrix(1,0,0,1,0,0)" fill="#000000" class="wordmark-text-0" data-fill-palette-color="primary" id="text-0"></path></svg></g></svg></g></svg></g></svg></g></svg></g><defs></defs></svg><rect width="395.52" height="63.93419777341192" fill="none" stroke="none" visibility="hidden"></rect></g></svg></g></svg>